<svg width="44" height="44" viewBox="0 0 44 44" fill="none" xmlns="http://www.w3.org/2000/svg">
<g filter="url(#filter0_dd_14_39573)">
<path d="M6 10C6 5.58172 9.58172 2 14 2H30C34.4183 2 38 5.58172 38 10V26C38 30.4183 34.4183 34 30 34H14C9.58172 34 6 30.4183 6 26V10Z" fill="white"/>
<path d="M14 2.25H30C34.2802 2.25 37.75 5.71979 37.75 10V26C37.75 30.2802 34.2802 33.75 30 33.75H14C9.71979 33.75 6.25 30.2802 6.25 26V10C6.25 5.71979 9.71979 2.25 14 2.25Z" stroke="black" stroke-opacity="0.16" stroke-width="0.5"/>
<path d="M16 18H28M16 14H28M16 22H28" stroke="#0A0D14" stroke-width="1.5" stroke-linecap="round" stroke-linejoin="round"/>
</g>
<defs>
<filter id="filter0_dd_14_39573" x="0" y="0" width="44" height="44" filterUnits="userSpaceOnUse" color-interpolation-filters="sRGB">
<feFlood flood-opacity="0" result="BackgroundImageFix"/>
<feColorMatrix in="SourceAlpha" type="matrix" values="0 0 0 0 0 0 0 0 0 0 0 0 0 0 0 0 0 0 127 0" result="hardAlpha"/>
<feOffset dy="4"/>
<feGaussianBlur stdDeviation="3"/>
<feComposite in2="hardAlpha" operator="out"/>
<feColorMatrix type="matrix" values="0 0 0 0 0.113725 0 0 0 0 0.113725 0 0 0 0 0.113725 0 0 0 0.04 0"/>
<feBlend mode="normal" in2="BackgroundImageFix" result="effect1_dropShadow_14_39573"/>
<feColorMatrix in="SourceAlpha" type="matrix" values="0 0 0 0 0 0 0 0 0 0 0 0 0 0 0 0 0 0 127 0" result="hardAlpha"/>
<feOffset dy="1"/>
<feGaussianBlur stdDeviation="0.5"/>
<feComposite in2="hardAlpha" operator="out"/>
<feColorMatrix type="matrix" values="0 0 0 0 0 0 0 0 0 0 0 0 0 0 0 0 0 0 0.04 0"/>
<feBlend mode="normal" in2="effect1_dropShadow_14_39573" result="effect2_dropShadow_14_39573"/>
<feBlend mode="normal" in="SourceGraphic" in2="effect2_dropShadow_14_39573" result="shape"/>
</filter>
</defs>
</svg>
