<svg width="15" height="15" viewBox="0 0 15 15" fill="none" xmlns="http://www.w3.org/2000/svg">
<path d="M0.75 8.75L0.21967 8.21967C-0.0732233 8.51256 -0.0732233 8.98744 0.21967 9.28033L0.75 8.75ZM5.41667 13.4167L4.88634 13.947C5.17923 14.2399 5.6541 14.2399 5.947 13.947L5.41667 13.4167ZM13.4167 5.41667L13.947 5.947C14.2399 5.6541 14.2399 5.17923 13.947 4.88634L13.4167 5.41667ZM8.75 0.75L9.28033 0.21967C8.98744 -0.0732233 8.51256 -0.0732233 8.21967 0.21967L8.75 0.75ZM5.71967 2.71967C5.42678 3.01256 5.42678 3.48744 5.71967 3.78033C6.01256 4.07322 6.48744 4.07322 6.78033 3.78033L6.25 3.25L5.71967 2.71967ZM3.78033 6.78033C4.07322 6.48744 4.07322 6.01256 3.78033 5.71967C3.48744 5.42678 3.01256 5.42678 2.71967 5.71967L3.25 6.25L3.78033 6.78033ZM10.3863 7.38634C10.0934 7.67923 10.0934 8.1541 10.3863 8.447C10.6792 8.73989 11.1541 8.73989 11.447 8.447L10.9167 7.91667L10.3863 7.38634ZM8.447 11.447C8.73989 11.1541 8.73989 10.6792 8.447 10.3863C8.1541 10.0934 7.67923 10.0934 7.38634 10.3863L7.91667 10.9167L8.447 11.447ZM4.553 8.553C4.26011 8.8459 4.26011 9.32077 4.553 9.61366C4.8459 9.90656 5.32077 9.90656 5.61366 9.61366L5.08333 9.08333L4.553 8.553ZM9.61366 5.61366C9.90656 5.32077 9.90656 4.8459 9.61366 4.553C9.32077 4.26011 8.8459 4.26011 8.553 4.553L9.08333 5.08333L9.61366 5.61366ZM0.75 8.75L0.21967 9.28033L4.88634 13.947L5.41667 13.4167L5.947 12.8863L1.28033 8.21967L0.75 8.75ZM13.4167 5.41667L13.947 4.88634L9.28033 0.21967L8.75 0.75L8.21967 1.28033L12.8863 5.947L13.4167 5.41667ZM8.75 0.75L8.21967 0.21967L5.71967 2.71967L6.25 3.25L6.78033 3.78033L9.28033 1.28033L8.75 0.75ZM3.25 6.25L2.71967 5.71967L0.21967 8.21967L0.75 8.75L1.28033 9.28033L3.78033 6.78033L3.25 6.25ZM10.9167 7.91667L11.447 8.447L13.947 5.947L13.4167 5.41667L12.8863 4.88634L10.3863 7.38634L10.9167 7.91667ZM5.41667 13.4167L5.947 13.947L8.447 11.447L7.91667 10.9167L7.38634 10.3863L4.88634 12.8863L5.41667 13.4167ZM5.08333 9.08333L5.61366 9.61366L9.61366 5.61366L9.08333 5.08333L8.553 4.553L4.553 8.553L5.08333 9.08333Z" fill="#675FFF"/>
</svg>
