<svg width="20" height="20" viewBox="0 0 20 20" fill="none" xmlns="http://www.w3.org/2000/svg">
<path d="M6.18327 0.487684C6.02528 0.22285 5.75394 0.0457221 5.44791 0.00765587C5.14189 -0.0304103 4.83542 0.0748438 4.61737 0.292901L0.292916 4.61735C0.0405028 4.86977 -0.0582203 5.23759 0.0338802 5.58247C0.503034 7.33926 1.21143 9.04591 2.15916 10.6506C3.01306 12.0964 4.06065 13.4584 5.30115 14.6989C6.54164 15.9394 7.90366 16.987 9.34944 17.8409C10.9541 18.7886 12.6608 19.497 14.4176 19.9662C14.7624 20.0583 15.1303 19.9595 15.3827 19.7071L19.7071 15.3827C19.9252 15.1646 20.0304 14.8581 19.9924 14.5521C19.9543 14.2461 19.7772 13.9748 19.5123 13.8168L15.2295 11.2618C14.8363 11.0272 14.3339 11.0897 14.0101 11.4135L12.5252 12.8984C11.4257 12.2719 10.3901 11.4892 9.45047 10.5496C8.51081 9.6099 7.72814 8.5743 7.10167 7.4748L8.58655 5.98992C8.91035 5.66612 8.97284 5.16376 8.73823 4.77049L6.18327 0.487684Z" fill="#675FFF"/>
</svg>
